<svg width="1180" height="610" viewBox="0 0 1180 610" xmlns="http://www.w3.org/2000/svg" xmlns:xlink="http://www.w3.org/1999/xlink">

  <defs>
    <linearGradient id="accentGrad" x1="0%" y1="0%" x2="100%" y2="100%">
      <stop offset="0%" stop-color="#7C3AED"/>
      <stop offset="50%" stop-color="#22D3EE"/>
      <stop offset="100%" stop-color="#10B981"/>
    </linearGradient>

    <linearGradient id="asciiGrad" x1="0%" y1="0%" x2="100%" y2="100%">
      <stop offset="0%" stop-color="#22D3EE"/>
      <stop offset="100%" stop-color="#7C3AED"/>
    </linearGradient>

    <radialGradient id="glowA" cx="50%" cy="50%" r="50%">
      <stop offset="0%" stop-color="#3B82F6" stop-opacity="0.55"/>
      <stop offset="100%" stop-color="#3B82F6" stop-opacity="0"/>
    </radialGradient>
    <radialGradient id="glowB" cx="50%" cy="50%" r="50%">
      <stop offset="0%" stop-color="#7C3AED" stop-opacity="0.45"/>
      <stop offset="100%" stop-color="#7C3AED" stop-opacity="0"/>
    </radialGradient>
    <radialGradient id="glowC" cx="50%" cy="50%" r="50%">
      <stop offset="0%" stop-color="#10B981" stop-opacity="0.40"/>
      <stop offset="100%" stop-color="#10B981" stop-opacity="0"/>
    </radialGradient>

    <linearGradient id="borderGrad" x1="0%" y1="0%" x2="100%" y2="0%">
      <stop offset="0%" stop-color="#7C3AED"/>
      <stop offset="50%" stop-color="#22D3EE"/>
      <stop offset="100%" stop-color="#10B981"/>
    </linearGradient>

    <linearGradient id="glassHi" x1="0%" y1="0%" x2="0%" y2="100%">
      <stop offset="0%" stop-color="#FFFFFF" stop-opacity="0.06"/>
      <stop offset="100%" stop-color="#FFFFFF" stop-opacity="0"/>
    </linearGradient>

    <clipPath id="cardClip">
      <rect x="0" y="0" width="1180" height="610" rx="26"/>
    </clipPath>
    <clipPath id="leftClip">
      <rect x="28" y="28" width="448" height="554" rx="20"/>
    </clipPath>
    <clipPath id="rightClip">
      <rect x="504" y="28" width="648" height="554" rx="20"/>
    </clipPath>
    <clipPath id="portraitFrameClip">
      <rect x="-152" y="-152" width="304" height="304" rx="22"/>
    </clipPath>
  </defs>

  <g clip-path="url(#cardClip)">

  <rect x="0" y="0" width="1180" height="610" fill="#030712"/>
  <circle cx="120" cy="90" r="240" fill="url(#glowA)" opacity="0.16"/>
  <circle cx="1040" cy="510" r="260" fill="url(#glowC)" opacity="0.13"/>
  <circle cx="800" cy="80" r="200" fill="url(#glowB)" opacity="0.11"/>

  <g>
    <circle cx="60" cy="520" r="2.2" fill="#7C3AED" opacity="0.45"/>
    <circle cx="200" cy="60" r="1.6" fill="#22D3EE" opacity="0.45"/>
    <circle cx="900" cy="500" r="2.4" fill="#10B981" opacity="0.45"/>
    <circle cx="1040" cy="120" r="1.8" fill="#7C3AED" opacity="0.45"/>
    <circle cx="520" cy="30" r="1.4" fill="#22D3EE" opacity="0.45"/>
    <circle cx="760" cy="560" r="2.0" fill="#10B981" opacity="0.45"/>
    <circle cx="340" cy="480" r="1.5" fill="#7C3AED" opacity="0.45"/>
    <circle cx="980" cy="300" r="1.7" fill="#22D3EE" opacity="0.45"/>
    <circle cx="150" cy="300" r="1.3" fill="#10B981" opacity="0.45"/>
  </g>

  <rect x="28" y="34" width="448" height="554" rx="20"
        fill="#000000" opacity="0.35"/>


  <g clip-path="url(#leftClip)">
    <rect x="28" y="28" width="448" height="554" fill="#0F172A"/>
    <rect x="28" y="28" width="448" height="554" fill="url(#glassHi)" opacity="0.5"/>
    <rect x="28" y="28" width="448" height="249.3" fill="url(#glowA)" opacity="0.25"/>

    <text x="48" y="60" font-family='SFMono-Regular,Consolas,Menlo,monospace' font-size="11.5" font-weight="700" letter-spacing="1.5" fill="#22D3EE">// ANALYST MODE</text>
    <circle cx="437" cy="56" r="4" fill="#22D3EE"/>
    <circle cx="437" cy="56" r="7" fill="none" stroke="#22D3EE" stroke-width="1" opacity="0.35"/>
    <text x="456" y="60" text-anchor="end" font-family='SFMono-Regular,Consolas,Menlo,monospace' font-size="10.5" font-weight="600" letter-spacing="1.3" fill="#94A3B8">LIVE FEED</text>

    <line x1="28" y1="80" x2="476" y2="80" stroke="#1E293B" stroke-width="1"/>

    <g transform="translate(252 262)">
      <circle cx="0" cy="0" r="185" fill="url(#glowA)" opacity="0.18"/>

      <rect x="-152" y="-152" width="304" height="304" rx="22" fill="#0B1526" opacity="0.92"/>
      <rect x="-152" y="-152" width="304" height="304" rx="22" fill="url(#glassHi)" opacity="0.4"/>

      <g clip-path="url(#portraitFrameClip)">
        <g stroke="#22D3EE" stroke-width="0.6" opacity="0.10">
          <line x1="-152" y1="-76" x2="152" y2="-76"/>
          <line x1="-152" y1="0" x2="152" y2="0"/>
          <line x1="-152" y1="76" x2="152" y2="76"/>
          <line x1="-76" y1="-152" x2="-76" y2="152"/>
          <line x1="0" y1="-152" x2="0" y2="152"/>
          <line x1="76" y1="-152" x2="76" y2="152"/>
        </g>

        <g fill="#22D3EE" opacity="0.05">
          <rect x="-152" y="-120" width="304" height="2"/>
          <rect x="-152" y="-60" width="304" height="2"/>
          <rect x="-152" y="20" width="304" height="2"/>
          <rect x="-152" y="90" width="304" height="2"/>
        </g>

        <g stroke="#22D3EE" fill="none">
          <circle cx="0" cy="0" r="108" stroke-width="1" opacity="0.25"/>
          <circle cx="0" cy="0" r="78" stroke-width="1" opacity="0.35"/>
          <circle cx="0" cy="0" r="48" stroke-width="1.2" opacity="0.45"/>
          <line x1="0" y1="-118" x2="0" y2="-100" stroke-width="1.4" opacity="0.5"/>
          <line x1="0" y1="100" x2="0" y2="118" stroke-width="1.4" opacity="0.5"/>
          <line x1="-118" y1="0" x2="-100" y2="0" stroke-width="1.4" opacity="0.5"/>
          <line x1="100" y1="0" x2="118" y2="0" stroke-width="1.4" opacity="0.5"/>
        </g>

        <circle cx="0" cy="0" r="118" fill="none" stroke="#22D3EE" stroke-width="6" opacity="0.06"/>

        <!-- PORTRAIT PLACEHOLDER -->
        <rect
          x="-110"
          y="-110"
          width="220"
          height="220"
          rx="18"
          fill="#152238"/>
        <rect x="-110" y="-110" width="220" height="220" rx="18" fill="none" stroke="#2A3B57" stroke-width="1"/>
      </g>

      <rect x="-152" y="-152" width="304" height="304" rx="22" fill="none" stroke="#22D3EE" stroke-width="1.3" opacity="0.85"/>
      <rect x="-152" y="-152" width="304" height="304" rx="22" fill="none" stroke="#7C3AED" stroke-width="1" opacity="0.18"/>

      <g stroke="#22D3EE" stroke-width="2.4" fill="none" stroke-linecap="round">
        <path d="M -166 -122 L -166 -166 L -122 -166"/>
        <path d="M 122 -166 L 166 -166 L 166 -122"/>
        <path d="M 166 122 L 166 166 L 122 166"/>
        <path d="M -122 166 L -166 166 L -166 122"/>
      </g>

      <circle cx="-152" cy="-152" r="2.6" fill="#22D3EE"/>
      <circle cx="152" cy="-152" r="2.6" fill="#22D3EE"/>
      <circle cx="152" cy="152" r="2.6" fill="#22D3EE"/>
      <circle cx="-152" cy="152" r="2.6" fill="#22D3EE"/>
    </g>

    <g transform="translate(252.0 527.0)" text-anchor="middle">
      <text x="0" y="0" font-family='SFMono-Regular,Consolas,Menlo,monospace' font-size="13" font-weight="700" letter-spacing="1"><tspan fill="#22D3EE">● </tspan><tspan fill="#F8FAFC">SYSTEM ONLINE</tspan></text>
      <text x="0" y="20" font-family='SFMono-Regular,Consolas,Menlo,monospace' font-size="10.5" letter-spacing="2" fill="#94A3B8">DATA • INSIGHTS • IMPACT</text>
    </g>
  </g>
  <rect x="28" y="28" width="448" height="554" rx="20" fill="none"
        stroke="#1E293B" stroke-width="1"/>

  <rect x="504" y="34" width="648" height="554" rx="20"
        fill="#000000" opacity="0.35"/>


  <g clip-path="url(#rightClip)">
    <rect x="504" y="28" width="648" height="554" fill="#111C33"/>
    <rect x="504" y="28" width="648" height="554" fill="url(#glassHi)" opacity="0.35"/>

    <rect x="504" y="28" width="648" height="34" fill="#0F172A"/>
    <line x1="504" y1="62" x2="1152" y2="62" stroke="#1E293B" stroke-width="1"/>
    <circle cx="526" cy="45.0" r="6" fill="#FF5F56"/>
    <circle cx="548" cy="45.0" r="6" fill="#FFBD2E"/>
    <circle cx="570" cy="45.0" r="6" fill="#27C93F"/>
    <text x="828.0" y="49.5" text-anchor="middle" font-family='SFMono-Regular,Consolas,Menlo,monospace' font-size="11.5" fill="#94A3B8">bhaskar — zsh — 90x30</text>

    <g>
      <text x="534" y="94" font-family='SFMono-Regular,Consolas,Menlo,monospace' font-size="21" font-weight="700" fill="#F8FAFC">Hi 👋</text>
      <text x="534" y="124" font-family='SFMono-Regular,Consolas,Menlo,monospace' font-size="21" font-weight="700">
        <tspan fill="#94A3B8">I'm </tspan><tspan fill="url(#accentGrad)">Bhaskar Nakka</tspan>
      </text>
    </g>
    <g>
      <text x="534" y="130" font-family='SFMono-Regular,Consolas,Menlo,monospace' font-size="10.5" letter-spacing="1.3" fill="#94A3B8">FOCUS AREAS</text>
      <text x="534" y="146" font-family='SFMono-Regular,Consolas,Menlo,monospace' font-size="13.5" font-weight="600"><tspan fill="url(#accentGrad)">▹ </tspan><tspan fill="#F8FAFC">Data Analyst</tspan></text>
      <text x="534" y="165" font-family='SFMono-Regular,Consolas,Menlo,monospace' font-size="13.5" font-weight="600"><tspan fill="url(#accentGrad)">▹ </tspan><tspan fill="#F8FAFC">SQL Developer</tspan></text>
      <text x="534" y="184" font-family='SFMono-Regular,Consolas,Menlo,monospace' font-size="13.5" font-weight="600"><tspan fill="url(#accentGrad)">▹ </tspan><tspan fill="#F8FAFC">Python Developer</tspan></text>
      <text x="534" y="203" font-family='SFMono-Regular,Consolas,Menlo,monospace' font-size="13.5" font-weight="600"><tspan fill="url(#accentGrad)">▹ </tspan><tspan fill="#F8FAFC">Tableau Dashboard Developer</tspan></text>
      <text x="534" y="222" font-family='SFMono-Regular,Consolas,Menlo,monospace' font-size="13.5" font-weight="600"><tspan fill="url(#accentGrad)">▹ </tspan><tspan fill="#F8FAFC">Business Intelligence Enthusiast</tspan></text>
    </g>
    <g>

      <g>
        <rect x="520" y="248" width="3" height="16" fill="url(#accentGrad)"/>
        <text x="534" y="261" font-family='SFMono-Regular,Consolas,Menlo,monospace' font-size="10.5" letter-spacing="1.3" fill="#94A3B8">LOCATION</text>
        <text x="534" y="277" font-family='SFMono-Regular,Consolas,Menlo,monospace' font-size="12.6" fill="#F8FAFC">Visakhapatnam, India</text>
      </g>

      <g>
        <rect x="520" y="282" width="3" height="16" fill="url(#accentGrad)"/>
        <text x="534" y="295" font-family='SFMono-Regular,Consolas,Menlo,monospace' font-size="10.5" letter-spacing="1.3" fill="#94A3B8">EDUCATION</text>
        <text x="534" y="311" font-family='SFMono-Regular,Consolas,Menlo,monospace' font-size="12.6" fill="#F8FAFC">B.Tech in Computer Science Engineering</text>
      </g>

      <g>
        <rect x="520" y="316" width="3" height="16" fill="url(#accentGrad)"/>
        <text x="534" y="329" font-family='SFMono-Regular,Consolas,Menlo,monospace' font-size="10.5" letter-spacing="1.3" fill="#94A3B8">CURRENT FOCUS</text>
        <text x="534" y="345" font-family='SFMono-Regular,Consolas,Menlo,monospace' font-size="12.6" fill="#F8FAFC">Building Data Analytics Projects with SQL, Python, Tableau &amp; Power BI</text>
      </g>

      <g>
        <rect x="520" y="350" width="3" height="16" fill="url(#accentGrad)"/>
        <text x="534" y="363" font-family='SFMono-Regular,Consolas,Menlo,monospace' font-size="10.5" letter-spacing="1.3" fill="#94A3B8">PORTFOLIO</text>
        <text x="534" y="379" font-family='SFMono-Regular,Consolas,Menlo,monospace' font-size="12.6" fill="#F8FAFC">portfolio-sand-one-44.vercel.app</text>
      </g>

      <g>
        <rect x="520" y="384" width="3" height="16" fill="url(#accentGrad)"/>
        <text x="534" y="397" font-family='SFMono-Regular,Consolas,Menlo,monospace' font-size="10.5" letter-spacing="1.3" fill="#94A3B8">EMAIL</text>
        <text x="534" y="413" font-family='SFMono-Regular,Consolas,Menlo,monospace' font-size="12.6" fill="#F8FAFC">bn7740401@gmail.com</text>
      </g>
    </g>

    <g>
      <text x="534" y="441" font-family='SFMono-Regular,Consolas,Menlo,monospace' font-size="10.5" letter-spacing="1.3" fill="#94A3B8">SKILLS</text>

      <g>
        <rect x="534.0" y="439.0" width="47.6" height="22" rx="12"
              fill="#182338" stroke="#2A3B57" stroke-width="1"/>
        <text x="557.8" y="454.0" text-anchor="middle" font-family='SFMono-Regular,Consolas,Menlo,monospace' font-size="11.5" font-weight="600" fill="#F8FAFC">SQL</text>
      </g>

      <g>
        <rect x="589.6" y="439.0" width="69.2" height="22" rx="12"
              fill="#182338" stroke="#2A3B57" stroke-width="1"/>
        <text x="624.2" y="454.0" text-anchor="middle" font-family='SFMono-Regular,Consolas,Menlo,monospace' font-size="11.5" font-weight="600" fill="#F8FAFC">Python</text>
      </g>

      <g>
        <rect x="666.8" y="439.0" width="62.0" height="22" rx="12"
              fill="#182338" stroke="#2A3B57" stroke-width="1"/>
        <text x="697.8" y="454.0" text-anchor="middle" font-family='SFMono-Regular,Consolas,Menlo,monospace' font-size="11.5" font-weight="600" fill="#F8FAFC">Excel</text>
      </g>

      <g>
        <rect x="736.8" y="439.0" width="76.4" height="22" rx="12"
              fill="#182338" stroke="#2A3B57" stroke-width="1"/>
        <text x="775.0" y="454.0" text-anchor="middle" font-family='SFMono-Regular,Consolas,Menlo,monospace' font-size="11.5" font-weight="600" fill="#F8FAFC">Tableau</text>
      </g>

      <g>
        <rect x="821.2" y="439.0" width="83.6" height="22" rx="12"
              fill="#182338" stroke="#2A3B57" stroke-width="1"/>
        <text x="863.0" y="454.0" text-anchor="middle" font-family='SFMono-Regular,Consolas,Menlo,monospace' font-size="11.5" font-weight="600" fill="#F8FAFC">Power BI</text>
      </g>

      <g>
        <rect x="912.8" y="439.0" width="69.2" height="22" rx="12"
              fill="#182338" stroke="#2A3B57" stroke-width="1"/>
        <text x="947.4" y="454.0" text-anchor="middle" font-family='SFMono-Regular,Consolas,Menlo,monospace' font-size="11.5" font-weight="600" fill="#F8FAFC">Pandas</text>
      </g>

      <g>
        <rect x="990.0" y="439.0" width="62.0" height="22" rx="12"
              fill="#182338" stroke="#2A3B57" stroke-width="1"/>
        <text x="1021.0" y="454.0" text-anchor="middle" font-family='SFMono-Regular,Consolas,Menlo,monospace' font-size="11.5" font-weight="600" fill="#F8FAFC">NumPy</text>
      </g>

      <g>
        <rect x="1060.0" y="439.0" width="62.0" height="22" rx="12"
              fill="#182338" stroke="#2A3B57" stroke-width="1"/>
        <text x="1091.0" y="454.0" text-anchor="middle" font-family='SFMono-Regular,Consolas,Menlo,monospace' font-size="11.5" font-weight="600" fill="#F8FAFC">MySQL</text>
      </g>

      <g>
        <rect x="534.0" y="467.0" width="98.0" height="22" rx="12"
              fill="#182338" stroke="#2A3B57" stroke-width="1"/>
        <text x="583.0" y="482.0" text-anchor="middle" font-family='SFMono-Regular,Consolas,Menlo,monospace' font-size="11.5" font-weight="600" fill="#F8FAFC">PostgreSQL</text>
      </g>

      <g>
        <rect x="640.0" y="467.0" width="47.6" height="22" rx="12"
              fill="#182338" stroke="#2A3B57" stroke-width="1"/>
        <text x="663.8" y="482.0" text-anchor="middle" font-family='SFMono-Regular,Consolas,Menlo,monospace' font-size="11.5" font-weight="600" fill="#F8FAFC">Git</text>
      </g>

      <g>
        <rect x="695.6" y="467.0" width="69.2" height="22" rx="12"
              fill="#182338" stroke="#2A3B57" stroke-width="1"/>
        <text x="730.2" y="482.0" text-anchor="middle" font-family='SFMono-Regular,Consolas,Menlo,monospace' font-size="11.5" font-weight="600" fill="#F8FAFC">GitHub</text>
      </g>

      <g>
        <rect x="772.8" y="467.0" width="76.4" height="22" rx="12"
              fill="#182338" stroke="#2A3B57" stroke-width="1"/>
        <text x="811.0" y="482.0" text-anchor="middle" font-family='SFMono-Regular,Consolas,Menlo,monospace' font-size="11.5" font-weight="600" fill="#F8FAFC">VS Code</text>
      </g>
    </g>

    <g>
      <line x1="534" y1="507" x2="1122" y2="507" stroke="#1E293B" stroke-width="1"/>

      <a xlink:href="https://github.com/bhaskar-nb" target="_blank">
        <g transform="translate(549.0 540.0)">
          <circle r="15" fill="#182338" stroke="#2A3B57" stroke-width="1"/>
          <text x="0" y="4.5" text-anchor="middle" font-family='SFMono-Regular,Consolas,Menlo,monospace' font-size="11" font-weight="700" fill="url(#accentGrad)">GH</text>
        </g>
      </a>
      <text x="574.0" y="544.0" font-family='SFMono-Regular,Consolas,Menlo,monospace' font-size="11.5" fill="#94A3B8">GitHub</text>

      <a xlink:href="https://www.linkedin.com/in/bhaskar-nakka-43a701259" target="_blank">
        <g transform="translate(654.6 540.0)">
          <circle r="15" fill="#182338" stroke="#2A3B57" stroke-width="1"/>
          <text x="0" y="4.5" text-anchor="middle" font-family='SFMono-Regular,Consolas,Menlo,monospace' font-size="11" font-weight="700" fill="url(#accentGrad)">in</text>
        </g>
      </a>
      <text x="679.6" y="544.0" font-family='SFMono-Regular,Consolas,Menlo,monospace' font-size="11.5" fill="#94A3B8">LinkedIn</text>

      <a xlink:href="https://public.tableau.com/app/profile/bhaskar.nakka4980/vizzes" target="_blank">
        <g transform="translate(773.4 540.0)">
          <circle r="15" fill="#182338" stroke="#2A3B57" stroke-width="1"/>
          <text x="0" y="4.5" text-anchor="middle" font-family='SFMono-Regular,Consolas,Menlo,monospace' font-size="11" font-weight="700" fill="url(#accentGrad)">T</text>
        </g>
      </a>
      <text x="798.4" y="544.0" font-family='SFMono-Regular,Consolas,Menlo,monospace' font-size="11.5" fill="#94A3B8">Tableau</text>

      <a xlink:href="https://portfolio-sand-one-44.vercel.app/" target="_blank">
        <g transform="translate(885.6 540.0)">
          <circle r="15" fill="#182338" stroke="#2A3B57" stroke-width="1"/>
          <text x="0" y="4.5" text-anchor="middle" font-family='SFMono-Regular,Consolas,Menlo,monospace' font-size="11" font-weight="700" fill="url(#accentGrad)">://</text>
        </g>
      </a>
      <text x="910.6" y="544.0" font-family='SFMono-Regular,Consolas,Menlo,monospace' font-size="11.5" fill="#94A3B8">Portfolio</text>
    </g>
  </g>
  <rect x="504" y="28" width="648" height="554" rx="20" fill="none"
        stroke="#1E293B" stroke-width="1"/>

  </g>

  <rect x="1.5" y="1.5" width="1177" height="607" rx="25" fill="none"
        stroke="#1E293B" stroke-width="1.4"/>
  <rect x="1.5" y="1.5" width="1177" height="607" rx="25" fill="none"
        stroke="url(#borderGrad)" stroke-width="1.4" opacity="0.55"/>

</svg>
